{"title":"Donner Pass 2012 DvDRip XviD Ac3 Feel-Free","uid":6965021,"size":1317349565,"categoryP":"video","categoryS":"movies","magnet":"?xt=urn:btih:f6ac2dcd2e1a57fd3c1f3c5feba79d6c397a3b8c&amp;dn=Donner+Pass+2012+DvDRip+XviD+Ac3+Feel-Free&amp;tr=udp%3A%2F%2Ftracker.openbittorrent.com%3A80&amp;tr=udp%3A%2F%2Fopen.demonii.com%3A1337&amp;tr=udp%3A%2F%2Ftracker.coppersurfer.tk%3A6969&amp;tr=udp%3A%2F%2Fexodus.desync.com%3A6969","seeders":2,"leechers":0,"uploader":".BONE.","files":10,"time":1326894180,"description":"Genre: Horror\nLanguage:English\n &lt;a href=&quot;\nhttp://www.imdb.com/title/tt1626139/&quot; rel=&quot;nofollow&quot; target=&quot;_NEW&quot;&gt;\nhttp://www.imdb.com/title/tt1626139/&lt;/a&gt;\n\nSource:DVD Thanks!\n\nFormat : AVI\nFormat/Info : Audio Video Interleave\nFile size : 1.23 GiB\nDuration : 1h 25mn\nOverall bit rate : 2 040 Kbps\n\nVideo\nID : 0\nFormat : MPEG-4 Visual\nFormat profile : Advanced Simple@L5\nFormat settings, BVOP : Yes\nFormat settings, QPel : No\nFormat settings, GMC : No warppoints\nFormat settings, Matrix : Default (H.263)\nCodec ID : XVID\nCodec ID/Hint : XviD\nDuration : 1h 25mn\nBit rate : 1 580 Kbps\nWidth : 640 pixels\nHeight : 360 pixels\nDisplay aspect ratio : 16:9\nFrame rate : 29.970 fps\nColor space : YUV\nChroma subsampling : 4:2:0\nBit depth : 8 bits\nScan type : Progressive\nBits/(Pixel*Frame) : 0.229\nStream size : 972 MiB (77%)\nWriting library : XviD 1.2.1 (UTC 2008-12-04)\n\nAudio\nID : 1\nFormat : AC-3\nFormat/Info : Audio Coding 3\nMode extension : CM (complete main)\nCodec ID : 2000\nDuration : 1h 25mn\nBit rate mode : Constant\nBit rate : 448 Kbps\nChannel(s) : 6 channels\nChannel positions : Front: L C R, Side: L R, LFE\nSampling rate : 48.0 KHz\nBit depth : 16 bits\nStream size : 276 MiB (22%)\nAlignment : Aligned on interleaves\nInterleave, duration : 33 ms (1.00 video frame)\nInterleave, preload duration : 512 ms\n\n\nPlot:\nDonner Pass has a well-known and macabre history - the place where George Donner and his party got stuck in the winter of 1846 and were forced to resort to cannibalism to keep from starving. But what if it wasn't just history?\n","torrent":{"xt":"urn:btih:f6ac2dcd2e1a57fd3c1f3c5feba79d6c397a3b8c","amp;dn":"Donner+Pass+2012+DvDRip+XviD+Ac3+Feel-Free","amp;tr":["udp%3A%2F%2Ftracker.openbittorrent.com%3A80","udp%3A%2F%2Fopen.demonii.com%3A1337","udp%3A%2F%2Ftracker.coppersurfer.tk%3A6969","udp%3A%2F%2Fexodus.desync.com%3A6969"],"infoHash":"f6ac2dcd2e1a57fd3c1f3c5feba79d6c397a3b8c","infoHashBuffer":{"type":"Buffer","data":[246,172,45,205,46,26,87,253,60,31,60,95,235,167,157,108,57,122,59,140]},"announce":[],"urlList":[]}}